#!OML:ASF F:\VICON\USERDATA\INSTALL\rory3\rory3.ASF
:FULLY-SPECIFIED
:DEGREES
2960
root 0.273154 17.4927 0.230355 5.03751 4.49391 -0.390295
lowerback -2.03287 0.102601 -2.02667
upperback -3.33176 0.162775 0.817063
thorax -2.28869 0.14137 1.97482
lowerneck -8.58862 -13.1156 -20.2132
upperneck 12.7891 -19.4596 24.084
head 10.086 -8.71212 9.03798
rclavicle -1.10419e-014 2.5842e-015
rhumerus -24.2342 17.6307 -90.8781
rradius 26.5504
rwrist 15.8382
rhand 6.3006 10.3402
rfingers 7.12502
rthumb 31.6097 -16.9432
lclavicle -1.10419e-014 2.5842e-015
lhumerus -26.4312 -45.4264 108.739
lradius 37.4859
lwrist 9.1305
lhand 8.57069 31.1837
lfingers 7.12502
lthumb 33.7695 58.0183
rfemur 0 0 0
rtibia 0
rfoot 0 0
rtoes 0
lfemur -7.83023 -19.0456 -16.9926
ltibia 14.261
lfoot -11.8227 10.918
ltoes -18.8295
2961
root 0.274119 17.4941 0.237296 5.09961 4.54284 -0.277982
lowerback -1.96202 0.0617995 -2.05482
upperback -3.33209 0.10614 0.765375
thorax -2.32595 0.11343 1.93738
lowerneck -8.63088 -13.1096 -20.0801
upperneck 12.639 -19.4279 24.0727
head 10.018 -8.69204 9.0094
rclavicle 1.19675e-014 1.98785e-014
rhumerus -25.7255 17.5451 -91.6065
rradius 26.3862
rwrist 15.5803
rhand 5.88225 10.2878
rfingers 7.12502
rthumb 31.2111 -17.0732
lclavicle 1.19675e-014 1.98785e-014
lhumerus -28.0848 -45.4481 109.659
lradius 36.6898
lwrist 8.76083
lhand 9.47643 31.5163
lfingers 7.12502
lthumb 34.6296 58.1581
rfemur 0 0 0
rtibia 0
rfoot 0 0
rtoes 0
lfemur -7.82526 -19.1045 -17.1022
ltibia 14.1761
lfoot -11.6231 10.9597
ltoes -19.891
2962
root 0.276368 17.4945 0.245116 5.17264 4.68553 -0.246484
lowerback -1.94077 -0.0229743 -2.01793
upperback -3.29844 -0.00694611 0.791663
thorax -2.29752 0.0556719 1.9438
lowerneck -8.74787 -13.0865 -20.0384
upperneck 12.4504 -19.3369 24.0694
head 9.94775 -8.64428 9.00662
rclavicle -6.63754e-015 9.34288e-015
rhumerus -27.1276 17.634 -92.2662
rradius 26.2831
rwrist 15.2667
rhand 5.48768 10.1426
rfingers 7.12502
rthumb 30.835 -17.2902
lclavicle -6.63754e-015 9.34288e-015
lhumerus -29.5409 -45.4051 110.553
lradius 35.8412
lwrist 8.61461
lhand 10.3611 32.0299
lfingers 7.12502
lthumb 35.4687 58.4752
rfemur 0 0 0
rtibia 0
rfoot 0 0
rtoes 0
lfemur -7.85611 -19.2462 -17.098
ltibia 14.0857
lfoot -11.4362 10.9391
ltoes -20.0865
2963
root 0.277756 17.4948 0.252256 5.26318 4.76435 -0.285267
lowerback -1.94635 -0.0829676 -1.92645
upperback -3.29129 -0.0865241 0.831641
thorax -2.28299 0.01401 1.9336
lowerneck -8.72601 -13.0419 -20.0958
upperneck 12.2165 -19.2467 24.206
head 9.86687 -8.60532 9.08108
rclavicle 1.52008e-014 3.18055e-015
rhumerus -28.5215 17.7171 -92.9462
rradius 26.191
rwrist 15.0859
rhand 5.50225 10.0034
rfingers 7.12502
rthumb 30.8489 -17.4267
lclavicle 1.52008e-014 3.18055e-015
lhumerus -31.0609 -45.4172 111.517
lradius 34.9956
lwrist 8.99468
lhand 10.4956 32.4765
lfingers 7.12502
lthumb 35.5962 58.8912
rfemur 0 0 0
rtibia 0
rfoot 0 0
rtoes 0
lfemur -7.92335 -19.3147 -17.0071
ltibia 14.0212
lfoot -11.4486 10.9482
ltoes -19.8685
2964
root 0.27712 17.4947 0.257673 5.30764 4.64468 -0.295234
lowerback -1.8751 -0.0583897 -1.87972
upperback -3.32894 -0.0552362 0.833513
thorax -2.36327 0.0298239 1.90943
lowerneck -8.59174 -12.9861 -20.1643
upperneck 12.0535 -19.1736 24.3421
head 9.79415 -8.58146 9.16267
rclavicle 4.41053e-015 1.12313e-014
rhumerus -30.0087 17.8011 -93.7004
rradius 26.1051
rwrist 15.0909
rhand 5.50131 10.0354
rfingers 7.12502
rthumb 30.848 -17.3949
lclavicle 4.41053e-015 1.12313e-014
lhumerus -32.6101 -45.3916 112.517
lradius 34.0301
lwrist 9.51121
lhand 10.8025 32.7734
lfingers 7.12502
lthumb 35.8871 59.1176
rfemur 0 0 0
rtibia 0
rfoot 0 0
rtoes 0
lfemur -7.90443 -19.1965 -17.0226
ltibia 13.9851
lfoot -11.3727 11.0463
ltoes -20.7616
2965
root 0.277187 17.4948 0.262932 5.40109 4.51565 -0.196038
lowerback -1.89575 -0.0455718 -1.92434
upperback -3.3541 -0.0388375 0.774954
thorax -2.37846 0.0386848 1.87423
lowerneck -8.48074 -12.9358 -20.1006
upperneck 11.9247 -19.1165 24.4128
head 9.71792 -8.55987 9.19313
rclavicle 8.30547e-015 2.10712e-014
rhumerus -31.4858 18.0492 -94.598
rradius 26.0687
rwrist 15.2764
rhand 5.27315 10.2337
rfingers 7.12502
rthumb 30.6305 -17.2375
lclavicle 8.30547e-015 2.10712e-014
lhumerus -34.1032 -45.4477 113.404
lradius 33.1123
lwrist 10.19
lhand 11.2623 32.9195
lfingers 7.12502
lthumb 36.3226 59.1561
rfemur 0 0 0
rtibia 0
rfoot 0 0
rtoes 0
lfemur -7.9462 -19.0792 -17.149
ltibia 13.9826
lfoot -11.4345 11.0689
ltoes -21.1045
